<svg width="38" height="38" viewBox="0 0 40 40" fill="none" xmlns="http://www.w3.org/2000/svg">
<circle cx="20" cy="20" r="20" fill="white"/>
<path d="M29.9793 15.5074C29.9317 14.4167 29.7571 13.6668 29.5071 13.0171C29.2491 12.3274 28.8523 11.7099 28.3324 11.1965C27.8244 10.6752 27.2093 10.2701 26.5347 10.0135C25.888 9.76087 25.1498 9.58448 24.0704 9.53639C22.983 9.48423 22.6378 9.47217 19.8797 9.47217C17.1217 9.47217 16.7765 9.48423 15.6931 9.53232C14.6137 9.58041 13.8717 9.75695 13.2288 10.0095C12.5462 10.2701 11.9351 10.6711 11.4271 11.1965C10.9112 11.7099 10.5105 12.3314 10.2564 13.0132C10.0064 13.6668 9.83185 14.4126 9.78426 15.5034C9.73264 16.6022 9.7207 16.9511 9.7207 19.7381C9.7207 22.5252 9.73264 22.8741 9.78023 23.9689C9.82782 25.0596 10.0025 25.8094 10.2526 26.4592C10.5105 27.1489 10.9112 27.7664 11.4271 28.2798C11.9351 28.8011 12.5502 29.2062 13.2248 29.4628C13.8717 29.7154 14.6097 29.8918 15.6892 29.9399C16.7725 29.9881 17.1178 30.0001 19.8759 30.0001C22.6339 30.0001 22.9791 29.9881 24.0625 29.9399C25.1419 29.8918 25.8839 29.7154 26.5268 29.4628C27.892 28.9294 28.9714 27.8386 29.4992 26.4592C29.7491 25.8055 29.9238 25.0596 29.9714 23.9689C30.0189 22.8741 30.0309 22.5252 30.0309 19.7381C30.0309 16.9511 30.0268 16.6022 29.9793 15.5074ZM28.1499 23.8886C28.1062 24.8912 27.9396 25.4326 27.8007 25.7935C27.4593 26.6878 26.757 27.3975 25.872 27.7425C25.5148 27.8828 24.9752 28.0512 23.987 28.0952C22.9156 28.1435 22.5942 28.1554 19.8838 28.1554C17.1733 28.1554 16.848 28.1435 15.7804 28.0952C14.7883 28.0512 14.2526 27.8828 13.8954 27.7425C13.455 27.578 13.0541 27.3173 12.7288 26.9765C12.3915 26.6436 12.1335 26.2426 11.9707 25.7975C11.8318 25.4366 11.6652 24.8912 11.6216 23.8927C11.5739 22.81 11.5621 22.4851 11.5621 19.7461C11.5621 17.0072 11.5739 16.6784 11.6216 15.5997C11.6652 14.5972 11.8318 14.0558 11.9707 13.6949C12.1335 13.2497 12.3915 12.8448 12.7328 12.5158C13.062 12.1749 13.4589 11.9143 13.8994 11.75C14.2566 11.6096 14.7963 11.4412 15.7844 11.397C16.8559 11.3489 17.1774 11.3369 19.8877 11.3369C22.6021 11.3369 22.9235 11.3489 23.991 11.397C24.9831 11.4412 25.5189 11.6096 25.876 11.75C26.3164 11.9143 26.7173 12.1749 27.0427 12.5158C27.38 12.8487 27.6379 13.2497 27.8007 13.6949C27.9396 14.0558 28.1062 14.6011 28.1499 15.5997C28.1975 16.6824 28.2095 17.0072 28.2095 19.7461C28.2095 22.4851 28.1975 22.8059 28.1499 23.8886Z" fill="#141313"/>
<path d="M19.8786 14.4651C16.9976 14.4651 14.6602 16.827 14.6602 19.7384C14.6602 22.6499 16.9976 25.0118 19.8786 25.0118C22.7597 25.0118 25.097 22.6499 25.097 19.7384C25.097 16.827 22.7597 14.4651 19.8786 14.4651ZM19.8786 23.1591C18.0096 23.1591 16.4935 21.6273 16.4935 19.7384C16.4935 17.8496 18.0096 16.3177 19.8786 16.3177C21.7477 16.3177 23.2636 17.8496 23.2636 19.7384C23.2636 21.6273 21.7477 23.1591 19.8786 23.1591Z" fill="#141313"/>
<path d="M26.5241 14.2561C26.5241 14.9358 25.9787 15.487 25.3059 15.487C24.6333 15.487 24.0879 14.9358 24.0879 14.2561C24.0879 13.5762 24.6333 13.0253 25.3059 13.0253C25.9787 13.0253 26.5241 13.5762 26.5241 14.2561Z" fill="#141313"/>
</svg>
