<svg width="40" height="40" viewBox="0 0 40 40" fill="none" xmlns="http://www.w3.org/2000/svg">
<circle cx="20" cy="20" r="20" fill="#141313" fill-opacity="0.05"/>
<path fill-rule="evenodd" clip-rule="evenodd" d="M14.166 13.3334C12.7853 13.3334 11.666 14.4527 11.666 15.8334V24.1667C11.666 25.5474 12.7853 26.6667 14.166 26.6667H25.8327C27.2134 26.6667 28.3327 25.5474 28.3327 24.1667V15.8334C28.3327 14.4527 27.2134 13.3334 25.8327 13.3334H14.166ZM13.4088 15.485C13.5407 15.1987 13.8302 15 14.166 15H25.8327C26.1685 15 26.458 15.1987 26.5899 15.485L20.511 20.2131C20.21 20.4471 19.7887 20.4471 19.4877 20.2131L13.4088 15.485ZM13.3327 17.5372V22.3875L16.3432 19.8787L13.3327 17.5372ZM13.4018 24.4994C13.5302 24.7941 13.8241 25 14.166 25H25.8327C26.1746 25 26.4685 24.7941 26.5969 24.4994L22.3089 20.9261L21.5342 21.5287C20.6314 22.2308 19.3673 22.2308 18.4645 21.5287L17.6898 20.9261L13.4018 24.4994ZM26.666 22.3875V17.5372L23.6555 19.8787L26.666 22.3875Z" fill="#141313"/>
</svg>
