<svg width="32" height="32" viewBox="0 0 32 32" fill="none" xmlns="http://www.w3.org/2000/svg">
<circle cx="16" cy="16" r="16" fill="#141313" fill-opacity="0.05"/>
<path fill-rule="evenodd" clip-rule="evenodd" d="M10.4947 9.63452C9.06946 9.63452 7.91406 10.7899 7.91406 12.2152V20.8173C7.91406 22.2426 9.06946 23.398 10.4947 23.398H22.5377C23.963 23.398 25.1184 22.2426 25.1184 20.8173V12.2152C25.1184 10.7899 23.963 9.63452 22.5377 9.63452H10.4947ZM9.71304 11.8555C9.84921 11.5601 10.148 11.355 10.4947 11.355H22.5377C22.8844 11.355 23.1832 11.5601 23.3194 11.8555L17.0443 16.7361C16.7337 16.9777 16.2987 16.9777 15.9881 16.7361L9.71304 11.8555ZM9.63449 13.974V18.9807L12.7421 16.391L9.63449 13.974ZM9.7058 21.1608C9.83841 21.4649 10.1417 21.6775 10.4947 21.6775H22.5377C22.8907 21.6775 23.194 21.4649 23.3266 21.1608L18.9003 17.4722L18.1006 18.0942C17.1687 18.819 15.8637 18.819 14.9319 18.0942L14.1321 17.4722L9.7058 21.1608ZM23.3979 18.9807V13.974L20.2903 16.391L23.3979 18.9807Z" fill="#141313"/>
</svg>
