<svg width="32" height="32" viewBox="0 0 32 32" fill="none" xmlns="http://www.w3.org/2000/svg">
<circle cx="16" cy="16" r="16" fill="#141313" fill-opacity="0.05"/>
<path fill-rule="evenodd" clip-rule="evenodd" d="M10.4327 10.0034C11.9444 8.49172 14.3954 8.49172 15.9071 10.0034C17.4188 11.5151 17.4188 13.9661 15.9071 15.4778C15.3444 16.0405 14.6516 16.3937 13.9255 16.5375L16.0639 18.6759C16.2077 17.9498 16.5609 17.257 17.1236 16.6943C18.6353 15.1826 21.0863 15.1826 22.598 16.6943C24.1097 18.206 24.1097 20.657 22.598 22.1687C21.1891 23.5776 18.9643 23.6734 17.4445 22.4561L17.4278 22.4728L17.1236 22.1687L10.4327 15.4778L10.1286 15.1737L10.1453 15.157C8.92802 13.6371 9.02383 11.4123 10.4327 10.0034ZM18.3402 20.9522C19.18 21.792 20.5416 21.792 21.3815 20.9522C22.2213 20.1123 22.2213 18.7507 21.3815 17.9109C20.5416 17.071 19.18 17.071 18.3402 17.9109C17.5003 18.7507 17.5003 20.1123 18.3402 20.9522ZM14.6906 14.2613C13.8507 15.1011 12.4891 15.1011 11.6493 14.2613C10.8094 13.4214 10.8094 12.0598 11.6493 11.22C12.4891 10.3801 13.8507 10.3801 14.6906 11.22C15.5304 12.0598 15.5304 13.4214 14.6906 14.2613Z" fill="#141313"/>
</svg>
