<svg width="40" height="40" viewBox="0 0 40 40" fill="none" xmlns="http://www.w3.org/2000/svg">
<circle cx="20" cy="20" r="20" fill="#141313" fill-opacity="0.05"/>
<path fill-rule="evenodd" clip-rule="evenodd" d="M14.1081 13.6907C15.5726 12.2262 17.9469 12.2262 19.4114 13.6907C20.8759 15.1552 20.8759 17.5295 19.4114 18.994C18.8663 19.5391 18.1951 19.8813 17.4918 20.0206L19.5633 22.0922C19.7026 21.3888 20.0448 20.7176 20.5899 20.1725C22.0544 18.7081 24.4288 18.7081 25.8932 20.1725C27.3577 21.637 27.3577 24.0114 25.8932 25.4758C24.5283 26.8407 22.3731 26.9335 20.9007 25.7543L20.8846 25.7705L20.5899 25.4758L14.1081 18.994L13.8135 18.6994L13.8297 18.6832C12.6504 17.2108 12.7432 15.0556 14.1081 13.6907ZM21.7684 24.2973C22.582 25.1109 23.9011 25.1109 24.7147 24.2973C25.5283 23.4837 25.5283 22.1646 24.7147 21.351C23.9011 20.5374 22.582 20.5374 21.7684 21.351C20.9548 22.1646 20.9548 23.4837 21.7684 24.2973ZM18.2329 17.8155C17.4193 18.6291 16.1002 18.6291 15.2866 17.8155C14.473 17.0019 14.473 15.6828 15.2866 14.8692C16.1002 14.0556 17.4193 14.0556 18.2329 14.8692C19.0465 15.6828 19.0465 17.0019 18.2329 17.8155Z" fill="#141313"/>
</svg>
